<svg id="Layer_1" data-name="Layer 1" xmlns="http://www.w3.org/2000/svg" viewBox="0 0 50 50"><defs><style>.cls-1{fill:#fff;}</style></defs><path class="cls-1" d="M45.62,23.63c0,3,0,5.95,0,8.92A11.38,11.38,0,0,1,34.23,43.86H16.5A11.35,11.35,0,0,1,5.15,32.54q-.06-8.92,0-17.85A11.27,11.27,0,0,1,16.4,3.41q9,0,18,0a11.29,11.29,0,0,1,11.24,11.3C45.63,17.68,45.62,20.65,45.62,23.63Zm-36.68-.1v8.58A7.68,7.68,0,0,0,16.75,40q8.63,0,17.26,0a7.67,7.67,0,0,0,7.8-7.82q0-8.64,0-17.27a7.65,7.65,0,0,0-7.75-7.74c-5.79,0-11.59,0-17.38,0A7.63,7.63,0,0,0,9,15C8.93,17.82,8.94,20.68,8.94,23.53Z"/><path class="cls-1" d="M25.43,13.07A10.56,10.56,0,1,1,14.81,23.51,10.6,10.6,0,0,1,25.43,13.07Zm0,17.22a6.68,6.68,0,0,0,6.63-6.65,6.7,6.7,0,1,0-13.4,0A6.69,6.69,0,0,0,25.44,30.29Z"/><path class="cls-1" d="M38.56,12.94a2.38,2.38,0,0,1-4.75,0,2.38,2.38,0,1,1,4.75,0Z"/></svg>